<svg version="1" xmlns="http://www.w3.org/2000/svg" width="205.333" height="205.333" viewBox="0 0 154.000000 154.000000"><path d="M46.8 7.5c-.2.2-1.9.5-3.8.8C17.5 12-.9 41.8.5 77 .9 88.6 2.8 95 8 102.6c7.2 10.8 17.8 15.6 33.5 15.3 10.8-.2 19-2 27-5.9 11.2-5.4 11.8-6.4 14.1-22.5.9-6.4 1.4-9.8 1.9-12.5.3-1.4.7-4.2 1-6.2.2-2.1.7-5.4 1.1-7.3l.6-3.5-20.8.2-20.8.3-.8 3.5c-.4 1.9-1 5.5-1.3 8l-.6 4.6 9.6-.1c5.9 0 9.5.3 9.5 1 0 .5-.7 4.8-1.7 9.4l-1.6 8.4-4.6 2c-2.5 1.1-7.5 2.2-11.1 2.4-16.9 1.1-23.5-11.6-19.4-37.7 1.5-10.1 2.9-15.1 5.6-20.5 5.3-10.5 12.4-15.6 22-15.7 9.8-.2 15.7 4.4 17.3 13.4.4 2.1 1 3.9 1.4 3.9.3.1 5 .2 10.5.3l9.8.2-.6-5.5C87.9 23.9 78.3 12.5 65 9c-4.1-1.1-17.4-2.2-18.2-1.5zM122.5 43.2c-3.2 1.2-8.5 4.6-9.8 6.3-.4.5-.5-.7-.3-2.7l.6-3.7-9 .2-9 .1-1 5.6c-1.2 6-1.7 8.7-2.5 14-.3 1.9-1.4 8.4-2.5 14.5-1.1 6-2.1 12.3-2.4 14-.3 1.6-1 5.5-1.6 8.5-.6 3-1.3 7.1-1.6 9-.4 3.6-3 18.5-3.9 23-.5 2.7-1.5 9.4-1.8 12.5-.2 1.8.5 1.9 9.2 2 11 0 9.6 2 13.6-19.1l2.8-15.1 4.1 2.9c7.5 5.2 20.2 5.3 28.4.1 13.9-8.9 21.9-36.4 16.4-56-1.6-5.7-6.8-12.5-11.3-14.9-3.8-1.9-14.6-2.7-18.4-1.2zm6 16.4c4.3 2 6 6.3 5.8 14.2-.4 13.3-3.9 22.7-10.2 26.9-5.9 4-15.4 2.4-17.8-2.9-.7-1.7-.6-4.5.7-10.8 1-4.7 1.8-8.6 1.8-8.8.1-.1.4-2.4.7-5 1-7 2.2-9.6 5.8-11.8 6.1-3.6 8.6-4 13.2-1.8z"/><path d="M105.5 123.5c-.3.8-.7 2.2-1 3-.2.8-.2 1.5.1 1.5.9 0 25.9-5.1 26.9-5.5.6-.2-5-.4-12.3-.4-11-.1-13.3.2-13.7 1.4z"/></svg>