<svg xmlns="http://www.w3.org/2000/svg" viewBox="0 0 153.71 138.89"><defs><style>.cls-1{fill:#efb771;}.cls-2{fill:#7bbcfb;}</style></defs><title>favicon</title><g id="Capa_2" data-name="Capa 2"><g id="Capa_1-2" data-name="Capa 1"><path class="cls-1" d="M153.27,73.39a61.35,61.35,0,0,1-6.11,20.73q-4.68,9.07-11.61,13.46a26.81,26.81,0,0,1-15.37,4.19q-10.79-.28-17-8l-6.8,35.15H77L94.77,36,112.62,36l-1.3,7.48q8-9.06,19-8.78t17,7.93q6,7.65,6.45,20.77A81.76,81.76,0,0,1,153.27,73.39ZM134,72l.42-6.6q.14-6.67-2.44-10.59a8.76,8.76,0,0,0-7.52-4.06q-8.44-.27-13.94,7.15L105,88.55q2.53,6.95,10.92,7.22a14,14,0,0,0,11.67-5.43Q132.26,84.7,134,72Z"/><path class="cls-2" d="M80.1,95.48q-5.76,7.32-16.88,11.27a71,71,0,0,1-25.09,3.73,38.88,38.88,0,0,1-19.36-4.84A33.77,33.77,0,0,1,5.61,91.94,48.48,48.48,0,0,1,.15,71.54q-.75-10.64,2.25-25a70.53,70.53,0,0,1,10.27-25.2A48.06,48.06,0,0,1,30.15,5.14,46,46,0,0,1,52.76,0Q69.61.31,79.14,9.5T90,35.85l-20.83-.08q-.83-9-4.81-13.3t-11.9-4.58q-13.66-.43-21.54,12T22,66q-.75,12.63,3.88,19.58T39.9,92.67q11,.3,18.77-5.24l3.62-18.55H42.64l2.88-16.33H86.61Z"/><polygon class="cls-2" points="133.76 114.51 103.76 120.51 105.76 114.51 140.76 114.51 133.76 114.51"/></g></g></svg>