<svg xmlns="http://www.w3.org/2000/svg" viewBox="0 0 509.64 136.54"><defs><style>.cls-1{fill:#f44336;}.cls-2{fill:#009688;}</style></defs><title>logo</title><g id="Capa_2" data-name="Capa 2"><g id="Capa_1-2" data-name="Capa 1"><path class="cls-1" d="M246.27,69.39a61.35,61.35,0,0,1-6.11,20.73q-4.68,9.07-11.61,13.46a26.81,26.81,0,0,1-15.37,4.19q-10.78-.28-17-8l-6.8,35.15H170L187.77,32,205.62,32l-1.3,7.48q8-9.06,19-8.78t17,7.93q6,7.65,6.45,20.77A81.76,81.76,0,0,1,246.27,69.39ZM227,68l.42-6.6q.14-6.68-2.44-10.59a8.76,8.76,0,0,0-7.52-4.06q-8.44-.27-13.94,7.15L198,84.55q2.53,6.95,10.92,7.22a14,14,0,0,0,11.67-5.43Q225.26,80.7,227,68Z"/><path class="cls-1" d="M283.14,78l21.21-46h21.56l-43.46,85.48q-4.67,9.81-10.95,14.42a24,24,0,0,1-14.52,4.6,43.8,43.8,0,0,1-9.34-1.45l1.44-15.1,2.68.14q9.48.27,13.87-6.94l4.26-7.89L257.73,32h20Z"/><path class="cls-1" d="M351.66,32l-1.58,8.45q9-10,21.76-9.75a20.92,20.92,0,0,1,11.4,3.15A14.78,14.78,0,0,1,389.35,42q9.82-11.6,23.07-11.32,10.23.2,15.41,7t4.36,19.64L432.05,59l-7.89,47.31H404.73l7.89-47.5a32.74,32.74,0,0,0,.21-4.74q-.48-7.22-8.24-7.43-8,0-13.66,8.53l-.21,1.58-8.65,49.56H362.71L370.61,59a34,34,0,0,0,.2-4.74q-.48-7.28-8.17-7.48-7.35-.21-13.25,6.94l-9.27,52.59H320.76L333.6,32Z"/><path class="cls-1" d="M474.83,107.7a32.4,32.4,0,0,1-17.27-4.77A29,29,0,0,1,446.34,90a35.87,35.87,0,0,1-2.89-18.09l.21-2.75A48,48,0,0,1,450,49.27a38.19,38.19,0,0,1,13.6-14A33.59,33.59,0,0,1,482,30.67q14.34.27,21.73,10.55t5.59,26l-1.09,8.46H462.68q-.29,7.2,3.5,11.53a13.36,13.36,0,0,0,10.3,4.46Q487,92,495,83.46l8.86,11a27.57,27.57,0,0,1-12.08,9.85A39.53,39.53,0,0,1,474.83,107.7Zm6.18-61A13.75,13.75,0,0,0,471.5,50q-4.15,3.49-7.45,12.15h26.64l.41-1.78a18.35,18.35,0,0,0,.07-5.22A10,10,0,0,0,487.8,49,10.6,10.6,0,0,0,481,46.66Z"/><path class="cls-2" d="M80.1,95.48q-5.76,7.32-16.88,11.27a71,71,0,0,1-25.09,3.73,38.88,38.88,0,0,1-19.36-4.84A33.77,33.77,0,0,1,5.61,91.94,48.48,48.48,0,0,1,.15,71.54q-.75-10.64,2.25-25a70.53,70.53,0,0,1,10.27-25.2A48.06,48.06,0,0,1,30.15,5.14,46,46,0,0,1,52.76,0Q69.61.31,79.14,9.5T90,35.85l-20.83-.08q-.83-9-4.81-13.3t-11.9-4.58q-13.66-.43-21.54,12T22,66q-.75,12.63,3.88,19.58T39.9,92.67q11,.3,18.77-5.24l3.62-18.55H42.64l2.88-16.33H86.61Z"/><path class="cls-2" d="M139,27.65a32.09,32.09,0,0,1,18.21,5.43,30.56,30.56,0,0,1,11.23,14.55A45.05,45.05,0,0,1,171,68.21q-1.69,19.08-13.26,30.86t-28.56,11.49a32,32,0,0,1-18-5.36A30.39,30.39,0,0,1,99.91,90.75a43.92,43.92,0,0,1-2.59-20.39q1.92-19.8,13.45-31.48A36.63,36.63,0,0,1,139,27.65ZM117.94,77.92q.14,7.08,3.32,11.18a11.06,11.06,0,0,0,8.94,4.24q9.62.3,15.08-8.82t5.1-23.94q-.3-7.08-3.44-11.33a10.89,10.89,0,0,0-9-4.39q-9.3-.28-14.89,8.75T117.94,77.92Z"/><polygon class="cls-1" points="499.76 116.51 282.76 125.51 288.62 116.51 499.76 116.51 499.76 116.51"/></g></g></svg>