<svg xmlns="http://www.w3.org/2000/svg" viewBox="0 0 619.89 142.26"><defs><style>.cls-1{fill:#f44336;}.cls-2{fill:#009688;}</style></defs><title>logo_1</title><g id="Capa_2" data-name="Capa 2"><g id="Capa_1-2" data-name="Capa 1"><path class="cls-1" d="M201.72,88.69h7V25.41h-7V2.35h61.73q18.14,0,27.7,7.81t9.56,25.23q0,17.45-9.56,25.24t-27.7,7.81H248.12V88.69h13.5v23.06h-59.9ZM252.9,48.47q8.16,0,8.16-9V34.41c0-3.09-.68-5.37-2-6.82s-3.4-2.18-6.12-2.18h-4.78V48.47Z"/><path class="cls-1" d="M389.85,33.57V56.63h-5.34l-18.42,48.79q-6.88,18.42-15.75,27.63T327,142.26a61.23,61.23,0,0,1-11.95-1.2,54.1,54.1,0,0,1-11-3.3V112.31h19.41v1.4c0,2.35,1.21,3.52,3.65,3.52a5.32,5.32,0,0,0,4.92-3.09L309.85,56.63H304.5V33.57h41.76V56.63h-4.78l7.31,21.93,6.75-21.93h-4.78V33.57Z"/><path class="cls-1" d="M536.09,88.69v23.06H491.65V88.69h5.91V65.63q0-4.65-2-6.82c-1.31-1.46-3.28-2.18-5.91-2.18q-8.43,0-8.43,9V88.69h5.9v23.06H443V88.69h5.91V65.63q0-4.65-2-6.82c-1.31-1.46-3.28-2.18-5.91-2.18q-8.43,0-8.43,9V88.69h5.9v23.06H394.07V88.69h6.19V56.63h-6.19V33.57H432.6v11q10.13-12.95,25.31-12.94,8.56,0,14,4a21.46,21.46,0,0,1,7.66,11.31,38.22,38.22,0,0,1,11.6-11.24,29.23,29.23,0,0,1,15.4-3.94q11.67,0,17.5,7.31t5.84,20.11V88.69Z"/><path class="cls-1" d="M551.27,103.24Q540,92.77,540,72.66t11.25-30.59Q562.52,31.6,582.49,31.6q19.82,0,28.61,10.33t8.79,25.66V77.72H574.33v.84q0,5.2,3.09,7.67t10.27,2.46A101.38,101.38,0,0,0,604,87.42a84.37,84.37,0,0,0,13.5-3.23v22.49q-4.92,2.68-14.41,4.86a92.22,92.22,0,0,1-20.6,2.17Q562.51,113.71,551.27,103.24Zm39.37-41V60.56q0-4.77-2-6.89c-1.36-1.4-3.4-2.11-6.11-2.11s-4.76.73-6.12,2.18-2,3.73-2,6.82v1.69Z"/><path class="cls-2" d="M106.86,76.21h-7v28.12q-6.18,3.53-18.07,6.26a113.83,113.83,0,0,1-25.66,2.74q-26.29,0-41.2-13.85T0,56.67Q0,27,14.83,13.5T57.23,0a107,107,0,0,1,25,2.81Q93.93,5.63,99.83,9.14V42.75H64.68V36.14c0-3.94-.82-6.77-2.46-8.51S58,25,54.42,25s-6.17.87-7.81,2.6-2.46,4.57-2.46,8.51V77.2c0,3.93.82,6.77,2.46,8.5s4.24,2.6,7.81,2.6,6.16-.86,7.8-2.6,2.46-4.57,2.46-8.5v-1H57.09V55.26h49.77Z"/><path class="cls-2" d="M121.21,102.86Q110,92.38,110,72.27t11.25-30.58q11.24-10.47,31.21-10.47,20.25,0,31.36,10.61t11.11,30.44q0,20.12-11.25,30.59t-31.22,10.47Q132.46,113.33,121.21,102.86Zm37.33-16.74q2-2.18,2-6.82V65.24q0-4.63-2-6.82t-6.12-2.18q-4.08,0-6.12,2.18c-1.36,1.46-2,3.73-2,6.82V79.3c0,3.1.67,5.37,2,6.82s3.4,2.18,6.12,2.18S157.18,87.58,158.54,86.12Z"/></g></g></svg>